<?xml version="1.0" encoding="utf-8"?>
<!-- Generator: Adobe Illustrator 22.0.1, SVG Export Plug-In . SVG Version: 6.00 Build 0)  -->
<svg version="1.1" id="Layer_1" xmlns="http://www.w3.org/2000/svg" xmlns:xlink="http://www.w3.org/1999/xlink" x="0px" y="0px"
	 viewBox="0 0 115 115" style="enable-background:new 0 0 115 115;" xml:space="preserve">
<style type="text/css">
	.st0{fill:#00AA84;}
	.st1{fill:#FFFFFF;}
</style>
<g>
	<path class="st0" d="M94.8,22c-2.2-5-8.6-9.1-14.1-9.1H67.5c-5.5,0-14.5,0-20,0H34.2c-5.5,0-11.8,4.1-14.1,9.1L2.2,62.2
		C0,67.2,1.8,73.9,6.4,77l42.9,29.7c4.5,3.1,11.9,3.1,16.4,0L108.6,77c4.5-3.1,6.4-9.8,4.2-14.8L94.8,22z"/>
</g>
<g>
	<path class="st1" d="M101,60.2L87.2,26.6c-0.7-1.7-2.3-2.1-3.5-0.8l-6.2,6.6c-1.2,1.3-1.8,3.9-1.4,5.7l8.8,35.3
		c0.5,1.8,2,2.4,3.3,1.3l11.4-9.3C101.1,64.3,101.6,62,101,60.2z"/>
	<path class="st1" d="M73.3,37.7c-0.4-1.9-2-4.1-3.4-4.9l-8.4-4.6c-1.5-0.8-2.6,0.2-2.6,2.1v35.3c0,2,1.3,3.9,2.8,4.5l17,5.6
		c1.6,0.5,2.5-0.6,2.1-2.5L73.3,37.7z"/>
	<path class="st1" d="M37.4,32.4l-6.2-6.6c-1.2-1.3-2.8-0.9-3.5,0.8L14,60.2c-0.7,1.7-0.2,4,1.2,5.1l11.4,9.3
		c1.4,1.1,2.8,0.5,3.3-1.3L38.7,38C39.2,36.2,38.6,33.7,37.4,32.4z"/>
	<path class="st1" d="M53.5,28.2l-8.3,4.5c-1.5,0.8-3,3-3.4,4.8l-7.6,35.1c-0.4,1.8,0.5,3,2.1,2.5l17-5.5c1.5-0.5,2.8-2.5,2.8-4.4
		V30.3C56.1,28.4,54.9,27.5,53.5,28.2z"/>
</g>
</svg>
